<svg width="96" height="96" viewBox="0 0 96 96" fill="none" xmlns="http://www.w3.org/2000/svg">
  <path d="M53 16C58 13.5 64.1 15.6 66.6 20.6L74.1 35.5C76.6 40.4 74.5 46.5 69.6 49L57.8 55L41.2 22.9L53 16Z" fill="#FDE68A"/>
  <path d="M26.6 36.1C30.8 32.7 37 33.3 40.4 37.4L63.5 65.8C66.9 69.9 66.4 76.1 62.2 79.5C58 82.9 51.8 82.4 48.4 78.2L25.3 49.8C21.9 45.7 22.4 39.5 26.6 36.1Z" fill="#F8D39B"/>
  <path d="M35 24L41 36" stroke="#D4A373" stroke-width="4" stroke-linecap="round"/>
  <path d="M27 29L36 44" stroke="#D4A373" stroke-width="4" stroke-linecap="round"/>
  <path d="M21 37L31 51" stroke="#D4A373" stroke-width="4" stroke-linecap="round"/>
  <path d="M69 19L72 9" stroke="#F59E0B" stroke-width="5" stroke-linecap="round"/>
  <path d="M78 27L87 22" stroke="#F59E0B" stroke-width="5" stroke-linecap="round"/>
  <path d="M78 39H88" stroke="#F59E0B" stroke-width="5" stroke-linecap="round"/>
</svg>

