<svg width="96" height="96" viewBox="0 0 96 96" fill="none" xmlns="http://www.w3.org/2000/svg">
  <circle cx="48" cy="48" r="40" fill="url(#night-bg)"/>
  <path d="M30 43C33 40 36 38.5 39.5 38.5" stroke="#2F2340" stroke-width="5" stroke-linecap="round"/>
  <path d="M56.5 38.5C60 38.5 63 40 66 43" stroke="#2F2340" stroke-width="5" stroke-linecap="round"/>
  <path d="M36 57.5C39 60.8 43 62.5 48 62.5C53 62.5 57 60.8 60 57.5" stroke="#2F2340" stroke-width="5.2" stroke-linecap="round"/>
  <path d="M66.5 20C70.5 20 73.8 23.3 73.8 27.3C73.8 30.2 72.2 32.7 69.8 33.8C71.3 31.9 72 29.8 72 27.4C72 23.9 70.4 20.8 67.8 18.5C67.4 18.1 66.9 17.7 66.5 17.4C66.5 18.3 66.5 19.2 66.5 20Z" fill="#FEF3C7"/>
  <circle cx="27.5" cy="24.5" r="2.5" fill="#FFFFFF" fill-opacity=".95"/>
  <circle cx="33.5" cy="18" r="1.7" fill="#FFFFFF" fill-opacity=".75"/>
  <circle cx="40.5" cy="24" r="1.4" fill="#FFFFFF" fill-opacity=".7"/>
  <defs>
    <linearGradient id="night-bg" x1="19" y1="15" x2="76" y2="84" gradientUnits="userSpaceOnUse">
      <stop stop-color="#C4B5FD"/>
      <stop offset="1" stop-color="#8B5CF6"/>
    </linearGradient>
  </defs>
</svg>
