<svg width="96" height="96" viewBox="0 0 96 96" fill="none" xmlns="http://www.w3.org/2000/svg">
  <circle cx="40" cy="49" r="19" fill="url(#idea-face)"/>
  <circle cx="33.5" cy="46" r="4.3" fill="#36251F"/>
  <circle cx="46.5" cy="46" r="4.3" fill="#36251F"/>
  <path d="M32 59C34.8 61.4 37.6 62.6 40.6 62.6C43.7 62.6 46.5 61.4 49.2 59" stroke="#36251F" stroke-width="4.6" stroke-linecap="round"/>
  <path d="M64.5 19C72 19 78 25 78 32.5C78 37.7 75.2 42.2 71 44.5V50C71 53.3 68.3 56 65 56H56C52.7 56 50 53.3 50 50V44.5C45.8 42.2 43 37.7 43 32.5C43 25 49 19 56.5 19H64.5Z" fill="url(#idea-bulb)"/>
  <path d="M57 56H64" stroke="#F59E0B" stroke-width="4.2" stroke-linecap="round"/>
  <path d="M60.5 16L62.5 9" stroke="#FACC15" stroke-width="4.6" stroke-linecap="round"/>
  <defs>
    <linearGradient id="idea-face" x1="24" y1="31" x2="55" y2="67" gradientUnits="userSpaceOnUse">
      <stop stop-color="#FFE298"/>
      <stop offset="1" stop-color="#FFB55E"/>
    </linearGradient>
    <linearGradient id="idea-bulb" x1="50" y1="19" x2="75" y2="53" gradientUnits="userSpaceOnUse">
      <stop stop-color="#FFF1A8"/>
      <stop offset="1" stop-color="#FBBF24"/>
    </linearGradient>
  </defs>
</svg>
