<svg width="96" height="96" viewBox="0 0 96 96" fill="none" xmlns="http://www.w3.org/2000/svg">
  <circle cx="48" cy="48" r="40" fill="url(#laugh-bg)"/>
  <path d="M28.5 38.5C31.8 33.9 36.1 31.6 41 31.6" stroke="#37261F" stroke-width="5.6" stroke-linecap="round"/>
  <path d="M55 31.6C59.9 31.6 64.2 33.9 67.5 38.5" stroke="#37261F" stroke-width="5.6" stroke-linecap="round"/>
  <path d="M27 52.5C32.7 64.3 40.6 70 48 70C55.4 70 63.3 64.3 69 52.5V56C69 67.6 59.6 77 48 77C36.4 77 27 67.6 27 56V52.5Z" fill="#37261F"/>
  <path d="M35 60.5H61C58 67 53.5 70.5 48 70.5C42.5 70.5 38 67 35 60.5Z" fill="#F97387"/>
  <path d="M33 43C35.2 45.5 37.7 46.8 40.5 46.8C43.3 46.8 45.8 45.5 48 43" stroke="#37261F" stroke-width="4.6" stroke-linecap="round"/>
  <path d="M48 43C50.2 45.5 52.7 46.8 55.5 46.8C58.3 46.8 60.8 45.5 63 43" stroke="#37261F" stroke-width="4.6" stroke-linecap="round"/>
  <defs>
    <linearGradient id="laugh-bg" x1="19" y1="15" x2="74" y2="83" gradientUnits="userSpaceOnUse">
      <stop stop-color="#FFD871"/>
      <stop offset="1" stop-color="#FFB53E"/>
    </linearGradient>
  </defs>
</svg>
