<svg width="96" height="96" viewBox="0 0 96 96" fill="none" xmlns="http://www.w3.org/2000/svg">
  <circle cx="48" cy="48" r="40" fill="#FFC94A"/>
  <path d="M28 38C31 33 35 31 40 31" stroke="#3A2E2A" stroke-width="6" stroke-linecap="round"/>
  <path d="M56 31C61 31 65 33 68 38" stroke="#3A2E2A" stroke-width="6" stroke-linecap="round"/>
  <path d="M28 54C33.5 64 41.2 69 48 69C54.8 69 62.5 64 68 54V56C68 66.5 59 75 48 75C37 75 28 66.5 28 56V54Z" fill="#3A2E2A"/>
  <path d="M36 61H60C57.3 66.8 53.2 70 48 70C42.8 70 38.7 66.8 36 61Z" fill="#F87171"/>
</svg>

