<svg width="96" height="96" viewBox="0 0 96 96" fill="none" xmlns="http://www.w3.org/2000/svg">
  <circle cx="48" cy="48" r="40" fill="url(#smile-bg)"/>
  <ellipse cx="35" cy="39" rx="5.5" ry="6" fill="#35251F"/>
  <ellipse cx="61" cy="39" rx="5.5" ry="6" fill="#35251F"/>
  <path d="M31 54C35.8 61.5 41.9 65.2 48 65.2C54.1 65.2 60.2 61.5 65 54" stroke="#35251F" stroke-width="5.8" stroke-linecap="round"/>
  <ellipse cx="25.5" cy="53.5" rx="6.5" ry="4.5" fill="#FF9F9F" fill-opacity=".6"/>
  <ellipse cx="70.5" cy="53.5" rx="6.5" ry="4.5" fill="#FF9F9F" fill-opacity=".6"/>
  <path d="M26 18C31 13.6 39.1 10.8 48.5 10.8C67.7 10.8 82.4 23.6 84.5 41.7C81.6 31.2 72.2 22.4 60.2 18.9C48 15.3 35.3 17 26 18Z" fill="#FFF7BF" fill-opacity=".75"/>
  <defs>
    <linearGradient id="smile-bg" x1="20" y1="16" x2="73" y2="84" gradientUnits="userSpaceOnUse">
      <stop stop-color="#FFE38B"/>
      <stop offset="1" stop-color="#FFBE55"/>
    </linearGradient>
  </defs>
</svg>
