<svg width="96" height="96" viewBox="0 0 96 96" fill="none" xmlns="http://www.w3.org/2000/svg">
  <circle cx="48" cy="48" r="40" fill="url(#tears-bg)"/>
  <path d="M31 38.5C33.8 35.6 36.9 34.2 40.3 34.2" stroke="#37261F" stroke-width="5.3" stroke-linecap="round"/>
  <path d="M55.7 34.2C59.1 34.2 62.2 35.6 65 38.5" stroke="#37261F" stroke-width="5.3" stroke-linecap="round"/>
  <circle cx="36.2" cy="44.5" r="4.8" fill="#37261F"/>
  <circle cx="59.8" cy="44.5" r="4.8" fill="#37261F"/>
  <path d="M39 61C42 58.4 45 57 48 57C51 57 54 58.4 57 61" stroke="#37261F" stroke-width="5.2" stroke-linecap="round"/>
  <path d="M27.8 53.6C30.8 57.1 31.1 60.7 28.7 64.5C26.6 68 23.7 68.9 20.9 66.9C18.2 64.9 17.8 61.5 19.9 58.3C21.7 55.5 24.3 53.9 27.8 53.6Z" fill="#73C7FF"/>
  <path d="M76.1 53.6C79.1 57.1 79.4 60.7 77 64.5C74.9 68 72 68.9 69.2 66.9C66.5 64.9 66.1 61.5 68.2 58.3C70 55.5 72.6 53.9 76.1 53.6Z" fill="#73C7FF"/>
  <defs>
    <linearGradient id="tears-bg" x1="20" y1="16" x2="74" y2="83" gradientUnits="userSpaceOnUse">
      <stop stop-color="#FFE28E"/>
      <stop offset="1" stop-color="#FFB65E"/>
    </linearGradient>
  </defs>
</svg>
