<svg
  xmlns="http://www.w3.org/2000/svg"
  width="64"
  height="64"
  viewBox="0 0 64 64"
  fill="none"
>
  <defs>
    <linearGradient id="sky" x1="12" y1="8" x2="52" y2="56" gradientUnits="userSpaceOnUse">
      <stop offset="0" stop-color="#A9DBFF" />
      <stop offset="0.46" stop-color="#DDF2FF" />
      <stop offset="1" stop-color="#FFF9FC" />
    </linearGradient>
    <radialGradient id="mist" cx="0" cy="0" r="1" gradientUnits="userSpaceOnUse" gradientTransform="translate(26 18) rotate(31) scale(28 20)">
      <stop offset="0" stop-color="#FFFFFF" stop-opacity="0.34" />
      <stop offset="1" stop-color="#FFFFFF" stop-opacity="0" />
    </radialGradient>
    <linearGradient id="cloud" x1="18" y1="24" x2="46" y2="42" gradientUnits="userSpaceOnUse">
      <stop offset="0" stop-color="#FFFFFF" />
      <stop offset="0.7" stop-color="#FDFEFF" />
      <stop offset="1" stop-color="#F8F4FB" />
    </linearGradient>
    <linearGradient id="cloudShade" x1="26" y1="33" x2="44" y2="43" gradientUnits="userSpaceOnUse">
      <stop offset="0" stop-color="#E7F3FF" stop-opacity="0" />
      <stop offset="1" stop-color="#E8DDEA" stop-opacity="0.78" />
    </linearGradient>
  </defs>
  <rect width="64" height="64" rx="18" fill="url(#sky)" />
  <rect width="64" height="64" rx="18" fill="url(#mist)" />
  <circle cx="17" cy="16" r="5" fill="#FFFFFF" fill-opacity="0.2" />
  <circle cx="47" cy="14" r="6" fill="#FFFFFF" fill-opacity="0.18" />
  <path
    d="M18.4 34.9846C18.4 30.551 21.9992 26.957 26.4156 26.957C28.879 26.957 31.0884 28.0723 32.5765 29.8331C33.6365 27.9217 35.7178 26.6455 38.1087 26.6455C41.6129 26.6455 44.5058 29.3057 44.8707 32.7391C47.3106 33.1172 49.1719 35.2276 49.1719 37.7834C49.1719 40.6073 46.87 42.895 44.0303 42.895H24.8696C21.2786 42.895 18.4 40.0307 18.4 36.4568V34.9846Z"
    fill="url(#cloud)"
  />
  <path
    d="M31.0337 40.7139C33.9058 40.7139 36.1838 40.2587 37.8677 39.3482C39.5515 38.4377 40.3935 37.1716 40.3935 35.5502C40.3935 34.4276 39.9634 33.4702 39.1031 32.6782"
    fill="url(#cloudShade)"
  />
  <path
    d="M24.8296 31.1006C26.7883 31.1006 28.5894 31.8101 30.2329 33.229"
    stroke="#FFFFFF"
    stroke-width="1.55"
    stroke-linecap="round"
  />
  <path
    d="M19.6821 35.2163C20.1043 32.1798 22.4735 29.7217 25.5502 29.0919C28.0516 28.5799 30.4717 29.1839 32.1505 30.6285"
    stroke="#9EC7E6"
    stroke-width="1.05"
    stroke-linecap="round"
    stroke-linejoin="round"
    opacity="0.34"
  />
</svg>
